<?xml version="1.0" encoding="utf-8"?>
<!-- Generator: Adobe Illustrator 16.0.0, SVG Export Plug-In . SVG Version: 6.00 Build 0)  -->
<!DOCTYPE svg PUBLIC "-//W3C//DTD SVG 1.1//EN" "http://www.w3.org/Graphics/SVG/1.1/DTD/svg11.dtd">
<svg version="1.1" id="Layer_1" xmlns="http://www.w3.org/2000/svg" xmlns:xlink="http://www.w3.org/1999/xlink" x="0px" y="0px"
	 width="192.664px" height="192.664px" viewBox="0 0 192.664 192.664" enable-background="new 0 0 192.664 192.664"
	 xml:space="preserve">
<g>
	<path fill="#FFFFFF" d="M193.131,142.527c-1.273,3.116-3.09,5.764-6.514,6.747c-4.225,1.213-7.861,0.168-10.992-2.975
		c-13.767-13.814-27.572-27.592-41.363-41.382c-12.063-12.06-24.137-24.108-36.16-36.207c-1.037-1.043-1.563-1.043-2.604,0
		c-25.91,25.972-51.889,51.875-77.768,77.876c-4.186,4.206-11.453,4.104-15.051-0.113c-1.021-1.194-1.35-2.705-2.213-3.945
		c0-1.756,0-3.512,0-5.268c1.082-2.606,2.904-4.635,4.881-6.605c28.092-28.046,56.184-56.09,84.184-84.227
		c3.686-3.703,10.851-3.705,14.537,0c28,28.137,56.093,56.182,84.183,84.229c1.973,1.971,3.893,3.929,4.881,6.604
		C193.131,139.015,193.131,140.771,193.131,142.527z"/>
</g>
</svg>
