<?xml version="1.0" encoding="utf-8"?>
<!-- Generator: Adobe Illustrator 16.0.0, SVG Export Plug-In . SVG Version: 6.00 Build 0)  -->
<!DOCTYPE svg PUBLIC "-//W3C//DTD SVG 1.1//EN" "http://www.w3.org/Graphics/SVG/1.1/DTD/svg11.dtd">
<svg version="1.1" id="Layer_1" xmlns="http://www.w3.org/2000/svg" xmlns:xlink="http://www.w3.org/1999/xlink" x="0px" y="0px"
	 width="192.664px" height="192.664px" viewBox="0 0 192.664 192.664" enable-background="new 0 0 192.664 192.664"
	 xml:space="preserve">
<g>
	<path fill="#FFFFFF" d="M50.979,193.041c-3.116-1.273-5.764-3.091-6.747-6.514c-1.213-4.225-0.168-7.862,2.975-10.993
		c13.814-13.767,27.592-27.571,41.382-41.362c12.06-12.063,24.108-24.137,36.207-36.161c1.043-1.036,1.043-1.563,0-2.604
		C98.824,69.497,72.921,43.519,46.92,17.64c-4.206-4.187-4.104-11.453,0.113-15.052c1.194-1.021,2.705-1.349,3.945-2.212
		c1.756,0,3.512,0,5.268,0c2.606,1.081,4.635,2.905,6.605,4.881c28.046,28.092,56.09,56.184,84.227,84.184
		c3.703,3.686,3.705,10.851,0,14.536c-28.137,28-56.182,56.094-84.229,84.183c-1.971,1.973-3.929,3.893-6.604,4.881
		C54.492,193.041,52.736,193.041,50.979,193.041z"/>
</g>
</svg>
