<?xml version="1.0" encoding="utf-8"?>
<!-- Generator: Adobe Illustrator 16.0.0, SVG Export Plug-In . SVG Version: 6.00 Build 0)  -->
<!DOCTYPE svg PUBLIC "-//W3C//DTD SVG 1.1//EN" "http://www.w3.org/Graphics/SVG/1.1/DTD/svg11.dtd">
<svg version="1.1" id="Layer_1" xmlns="http://www.w3.org/2000/svg" xmlns:xlink="http://www.w3.org/1999/xlink" x="0px" y="0px"
	 width="192.664px" height="192.664px" viewBox="0 0 192.664 192.664" enable-background="new 0 0 192.664 192.664"
	 xml:space="preserve">
<g>
	<path fill-rule="evenodd" clip-rule="evenodd" fill="#FFFFFF" d="M142.616,0.376c3.117,1.274,5.764,3.091,6.747,6.514
		c1.213,4.224,0.168,7.862-2.975,10.993c-13.814,13.766-27.591,27.571-41.381,41.362C92.947,71.308,80.899,83.382,68.8,95.406
		c-1.043,1.037-1.043,1.563,0,2.604c25.971,25.91,51.875,51.888,77.876,77.767c4.206,4.187,4.103,11.453-0.113,15.052
		c-1.195,1.021-2.705,1.349-3.946,2.212c-1.756,0-3.512,0-5.268,0c-2.606-1.081-4.634-2.905-6.605-4.881
		c-28.046-28.091-56.09-56.183-84.227-84.183c-3.703-3.686-3.704-10.851,0.001-14.537c28.136-28,56.181-56.093,84.228-84.182
		c1.971-1.973,3.929-3.893,6.604-4.881C139.104,0.376,140.86,0.376,142.616,0.376z"/>
</g>
</svg>
