<?xml version="1.0" encoding="utf-8"?>
<!-- Generator: Adobe Illustrator 16.0.0, SVG Export Plug-In . SVG Version: 6.00 Build 0)  -->
<!DOCTYPE svg PUBLIC "-//W3C//DTD SVG 1.1//EN" "http://www.w3.org/Graphics/SVG/1.1/DTD/svg11.dtd">
<svg version="1.1" id="Layer_1" xmlns="http://www.w3.org/2000/svg" xmlns:xlink="http://www.w3.org/1999/xlink" x="0px" y="0px"
	 width="192.664px" height="192.664px" viewBox="0 0 192.664 192.664" enable-background="new 0 0 192.664 192.664"
	 xml:space="preserve">
<g>
	<path fill="#FFFFFF" d="M0.465,50.89c1.274-3.116,3.091-5.764,6.514-6.747c4.224-1.213,7.862-0.168,10.993,2.975
		c13.766,13.814,27.571,27.592,41.362,41.382c12.063,12.06,24.137,24.108,36.161,36.207c1.037,1.043,1.563,1.043,2.604,0
		c25.91-25.972,51.889-51.875,77.768-77.876c4.186-4.206,11.453-4.104,15.051,0.113c1.021,1.194,1.35,2.705,2.213,3.945
		c0,1.756,0,3.512,0,5.268c-1.082,2.606-2.904,4.635-4.881,6.605c-28.092,28.046-56.184,56.09-84.184,84.227
		c-3.686,3.703-10.851,3.705-14.537,0c-28-28.137-56.093-56.182-84.182-84.229c-1.973-1.971-3.893-3.929-4.881-6.604
		C0.465,54.402,0.465,52.646,0.465,50.89z"/>
</g>
</svg>
