<?xml version="1.0" encoding="utf-8"?>
<!-- Generator: Adobe Illustrator 16.0.0, SVG Export Plug-In . SVG Version: 6.00 Build 0)  -->
<!DOCTYPE svg PUBLIC "-//W3C//DTD SVG 1.1//EN" "http://www.w3.org/Graphics/SVG/1.1/DTD/svg11.dtd">
<svg version="1.1" id="Layer_1" xmlns="http://www.w3.org/2000/svg" xmlns:xlink="http://www.w3.org/1999/xlink" x="0px" y="0px"
	 width="231.971px" height="131.983px" viewBox="0 0 231.971 131.983" enable-background="new 0 0 231.971 131.983"
	 xml:space="preserve">
<g>
	<path fill-rule="evenodd" clip-rule="evenodd" fill="#30D058" d="M134.974,19.827c6.62,0.647,13.281-0.287,19.92,0.967
		c25.759,4.865,42.688,29.828,37.025,55.458c-5.162,23.365-25.03,36.625-44.973,36.77c-14.656,0.107-29.313,0.094-43.969,0.134
		c-8.278-0.696-16.609,0.543-24.883-0.991c-23.568-4.373-40.07-25.979-37.97-49.937c2.036-23.234,22.007-41.881,45.443-42.193
		C102.034,19.817,118.505,19.886,134.974,19.827z M104.637,67.329c-0.632,22.521,21.235,41.735,42.406,41.073
		c23.013-0.721,41.593-19.493,41.287-42.509c-0.307-23.017-19.552-41.662-42.564-41.237
		C122.679,25.082,104.211,44.243,104.637,67.329z"/>
	<path fill-rule="evenodd" clip-rule="evenodd" fill="#FEFEFE" d="M104.637,67.329c-0.426-23.086,18.042-42.247,41.128-42.673
		c23.013-0.425,42.258,18.22,42.564,41.237c0.306,23.016-18.274,41.789-41.287,42.509
		C125.872,109.064,104.005,89.851,104.637,67.329z"/>
</g>
</svg>
