<?xml version="1.0" encoding="utf-8"?>
<!-- Generator: Adobe Illustrator 16.0.0, SVG Export Plug-In . SVG Version: 6.00 Build 0)  -->
<!DOCTYPE svg PUBLIC "-//W3C//DTD SVG 1.1//EN" "http://www.w3.org/Graphics/SVG/1.1/DTD/svg11.dtd">
<svg version="1.1" id="Layer_1" xmlns="http://www.w3.org/2000/svg" xmlns:xlink="http://www.w3.org/1999/xlink" x="0px" y="0px"
	 width="231.971px" height="131.983px" viewBox="0 0 231.971 131.983" enable-background="new 0 0 231.971 131.983"
	 xml:space="preserve">
<g>
	<path fill-rule="evenodd" clip-rule="evenodd" fill="#BFBFBF" d="M97.983,113.156c-6.62-0.648-13.281,0.287-19.92-0.967
		c-25.759-4.865-42.688-29.828-37.025-55.459c5.162-23.365,25.03-36.625,44.973-36.77c14.656-0.107,29.313-0.094,43.97-0.134
		c8.277,0.696,16.608-0.543,24.883,0.991c23.568,4.373,40.07,25.979,37.97,49.937c-2.036,23.234-22.007,41.882-45.443,42.192
		C130.923,113.166,114.452,113.096,97.983,113.156z M128.32,65.653c0.631-22.521-21.235-41.735-42.406-41.073
		c-23.013,0.721-41.593,19.493-41.287,42.51c0.307,23.016,19.552,41.661,42.564,41.236C110.278,107.9,128.746,88.74,128.32,65.653z"
		/>
	<path fill-rule="evenodd" clip-rule="evenodd" fill="#FEFEFE" d="M128.32,65.653c0.426,23.087-18.042,42.247-41.129,42.673
		c-23.013,0.425-42.258-18.221-42.564-41.236c-0.306-23.017,18.274-41.789,41.287-42.51
		C107.085,23.918,128.951,43.132,128.32,65.653z"/>
</g>
</svg>
